# xmcd
#
# Track frame offsets:
#	150
#	17289
#	39636
#	57945
#	72776
#	96255
#	116985
#	131959
#	154288
#	173079
#	192806
#	206609
#
# Disc length: 3047 seconds
#
# Revision: 1
# Processed by: cddbd v1.5.2PL0 Copyright (c) Steve Scherf et al.
# Submitted via: audiograbber 1.83.01
#
DISCID=a80be50c
DTITLE=Emmylou Harris - Wrecking Ball Demos and Outtakes
DYEAR=1995
DGENRE=Country
TTITLE0=All My Tears
TTITLE1=Goodbye
TTITLE2=Every Grain Of Sand
TTITLE3=Orphan Girl
TTITLE4=May This Be Love
TTITLE5=Waltz Across Texas Tonight
TTITLE6=Never Be Gold
TTITLE7=Sweet Old World
TTITLE8=Deeper Well
TTITLE9=Still Water
TTITLE10=How Will I Ever Be Simple Again
TTITLE11=Wrecking Ball
EXTD=
EXTT0=
EXTT1=
EXTT2=
EXTT3=
EXTT4=
EXTT5=
EXTT6=
EXTT7=
EXTT8=
EXTT9=
EXTT10=
EXTT11=
PLAYORDER=
